:SAMPLES-PER-SECOND 30
:FULLY-SPECIFIED
:DEGREES
119
root  -65.5159 40.2906 -7.26504 -138.321 -84.7624 131.732
RightUpLeg  -23.8569 -5.9264 -5.21971
RightLeg  16.2072 3.91998 1.11168
RightFoot  2.99258 -0.899211 7.28551
RightToes  0.000482159 0.542163 -0.142577
Spine  18.0534 -1.29947 -7.51997
Spine1  2.98808 -3.18085 4.11002
HEad  -27.9999 -13.649 3.37445
LeftShoulder1  5.10498 -8.04894 -38.0029
LeftArm  -21.1495 9.97421 -31.9659
LeftForeArm  93.6121 -80.1866 -61.8529
LeftHand  -0.25398 0.0180481 5.50724
RightShoulder  4.72976 8.32373 34.0112
RightArm  0.747964 -26.8841 32.2789
RightForeArm  -4.28907 18.1837 5.94403
RightHand  -1.51969 3.58346 -19.7857
LeftUpLeg  -3.22709 12.2479 -4.83772
LeftLeg  20.1662 1.13688 -0.356916
LeftFoot  -10.1721 0.016025 4.5
LeftToes  1.06247e-005 4.65854e-005 -8.18502e-006
120
root  -66.9818 40.2137 -7.49401 -107.467 -85.1094 99.6415
RightUpLeg  -17.4553 -6.03352 -7.05571
RightLeg  10.5587 4.06626 0.835895
RightFoot  3.94553 -0.824995 6.39051
RightToes  0.000482159 0.542163 -0.142577
Spine  15.6359 -1.49669 -9.10371
Spine1  4.88527 -4.24549 6.67571
HEad  -28 -14.7687 1.4088
LeftShoulder1  5.38856 -8.10179 -40.1361
LeftArm  -19.8087 12.5766 -31.318
LeftForeArm  79.4768 -78.3227 -47.4475
LeftHand  -0.25398 0.0180481 5.50724
RightShoulder  4.07501 7.36957 31.5456
RightArm  -1.50669 -27.196 34.7457
RightForeArm  -3.85971 18.497 5.73373
RightHand  -1.70651 4.40834 -20.3676
LeftUpLeg  0.610643 11.3807 -5.23772
LeftLeg  20.0682 -0.181998 -0.603739
LeftFoot  -12.094 0.101647 4.30179
LeftToes  1.06247e-005 4.65854e-005 -8.18502e-006
121
root  -68.3644 40.1939 -7.64192 -88.4834 -85.3121 79.8983
RightUpLeg  -13.2979 -6.73257 -7.05704
RightLeg  8.22749 4.18369 0.967631
RightFoot  7.62058 -0.453056 3.08327
RightToes  0.000482159 0.542163 -0.142577
Spine  13.5647 -1.93656 -6.8987
Spine1  5.70664 -4.27184 5.94885
HEad  -27.697 -16.4435 0.475664
LeftShoulder1  5.56136 -8.46393 -40.1895
LeftArm  -17.9013 15.8048 -31.3501
LeftForeArm  68.4753 -74.8665 -33.8229
LeftHand  -0.25398 0.0180481 5.50724
RightShoulder  3.93083 7.01728 31.4064
RightArm  -4.41738 -27.7999 35.7823
RightForeArm  -2.81481 17.9865 5.66947
RightHand  -1.72156 4.56056 -20.2351
LeftUpLeg  4.01029 10.4469 -4.74299
LeftLeg  19.6006 -0.753713 -0.258617
LeftFoot  -13.9587 0.172638 3.94819
LeftToes  1.06247e-005 4.65854e-005 -8.18502e-006
122
root  -69.6474 40.2326 -7.70626 -98.6996 -86.7822 90.1124
RightUpLeg  -12.4065 -6.59207 -5.125
RightLeg  9.57144 4.58226 1.50494
RightFoot  10.6091 0.18069 -0.600565
RightToes  0.000482159 0.542163 -0.142577
Spine  11.6854 -2.1168 -0.843201
Spine1  5.52263 -2.87664 2.20195
HEad  -26.453 -18.1277 0.354377
LeftShoulder1  5.6587 -8.99559 -39.0459
LeftArm  -16.2855 19.0409 -32.0435
LeftForeArm  59.3485 -68.8489 -22.5819
LeftHand  -0.25398 0.0180481 5.50724
RightShoulder  4.26348 7.34325 33.3646
RightArm  -7.70312 -27.5452 34.7894
RightForeArm  -0.581837 16.0853 5.75212
RightHand  -1.6578 4.45667 -19.7133
LeftUpLeg  5.58114 9.72186 -2.95347
LeftLeg  20.793 0.141651 0.432848
LeftFoot  -15.3838 0.175666 2.44638
LeftToes  1.06247e-005 4.65854e-005 -8.18502e-006
123
root  -70.7896 40.293 -7.80049 -138.932 -88.0101 130.726
RightUpLeg  -12.8104 -6.38389 -2.94207
RightLeg  12.5104 5.45406 1.95677
RightFoot  9.87384 0.517285 -2.40272
RightToes  0.000482159 0.542163 -0.142577
Spine  10.0663 -1.7365 3.63177
Spine1  6.08071 -1.85578 1.19032
HEad  -26.2423 -18.4758 0.0311779
LeftShoulder1  5.9153 -9.19696 -40.2876
LeftArm  -15.8415 20.671 -31.7959
LeftForeArm  50.7689 -60.5416 -15.117
LeftHand  -0.25398 0.0180481 5.50724
RightShoulder  4.28395 7.34916 33.5144
RightArm  -10.9667 -25.0712 34.1485
RightForeArm  1.37339 13.9258 5.73207
RightHand  -1.74534 4.98222 -19.7105
LeftUpLeg  4.39604 10.1289 -0.652837
LeftLeg  25.8163 0.991528 0.854935
LeftFoot  -14.4555 0.0777556 -0.731391
LeftToes  1.06247e-005 4.65854e-005 -8.18502e-006
